<?xml version="1.0" encoding="utf-8"?>
<!-- Generator: Adobe Illustrator 21.1.0, SVG Export Plug-In . SVG Version: 6.00 Build 0)  -->
<svg version="1.1" xmlns="http://www.w3.org/2000/svg" xmlns:xlink="http://www.w3.org/1999/xlink" x="0px" y="0px"
	 viewBox="0 0 1728 1296" style="enable-background:new 0 0 1728 1296;" xml:space="preserve">
<style type="text/css">
	.st0{fill:#F4D862;stroke:#F4D862;stroke-linecap:round;stroke-miterlimit:10;}
	.st1{fill:#E5C84E;stroke:#E5C84E;stroke-linecap:round;stroke-miterlimit:10;}
	.st2{fill:#CC8C37;stroke:#C69C6D;stroke-miterlimit:10;}
	.st3{fill:#C1272D;stroke:#FF0000;stroke-linecap:round;stroke-miterlimit:10;}
	.st4{fill:#E2CF61;stroke:#C69C6D;stroke-width:2;stroke-linecap:round;stroke-miterlimit:10;}
	.st5{fill:#E6E7E8;stroke:#231F20;stroke-linecap:round;stroke-miterlimit:10;}
	.st6{fill:#DBA24A;stroke:#C69C6D;stroke-miterlimit:10;}
	.st7{fill:#D18933;stroke:#C69C6D;stroke-miterlimit:10;}
	.st8{fill:#16960F;}
	.st9{fill:none;stroke:#000000;stroke-miterlimit:10;}
</style>
<g id="Layer_2">
	<g id="_x3C_Group_class_x3D__x22_slice_x22__x3E__2_">

			<rect x="653.2" y="411.1" transform="matrix(0.9934 0.1143 -0.1143 0.9934 51.8771 -72.1059)" class="st0" width="3.3" height="10.7"/>

			<rect x="597.3" y="460.4" transform="matrix(-0.3483 -0.9374 0.9374 -0.3483 366.6153 1199.6265)" class="st1" width="6" height="24"/>

			<rect x="651" y="403.9" transform="matrix(-0.9786 0.2058 -0.2058 -0.9786 1379.6766 688.3392)" class="st1" width="6" height="24"/>

			<rect x="651" y="403.9" transform="matrix(-0.3483 -0.9374 0.9374 -0.3483 491.9098 1173.8783)" class="st1" width="6" height="24"/>

			<rect x="651" y="403.9" transform="matrix(-0.3483 -0.9374 0.9374 -0.3483 491.9098 1173.8783)" class="st1" width="6" height="24"/>

			<rect x="651" y="403.9" transform="matrix(-0.3483 -0.9374 0.9374 -0.3483 491.9098 1173.8783)" class="st1" width="6" height="24"/>

			<rect x="566.1" y="294.3" transform="matrix(0.9374 -0.3483 0.3483 0.9374 -124.7891 226.949)" class="st2" width="5.6" height="332.5"/>

			<ellipse transform="matrix(0.1143 -0.9934 0.9934 0.1143 267.9514 1064.3567)" class="st3" cx="730.9" cy="381.9" rx="31.1" ry="27"/>
		<polygon class="st4" points="629.8,614.8 519.9,319 804,351.7 		"/>
		<path class="st5" d="M482.9,414.7"/>
		<path class="st6" d="M522,323.5c-2.9-1.5-17.5-9.4-17.3-19.3c0.2-8.8,12.5-13.7,17.5-16.7c34-20.3,85.9,5.8,190.2,7.5
			c48.8,0.8,99.8-1.3,108.9,19.7c1.2,2.9,3.2,8.4,2.2,14.6c-2.1,12.8-14.3,20.2-18.2,22.4"/>
		<polygon class="st7" points="799.7,354 519.6,321.8 531.6,313.3 811.8,345.5 		"/>

			<ellipse transform="matrix(0.1143 -0.9934 0.9934 0.1143 131.8564 996.1993)" class="st3" cx="624.6" cy="424.2" rx="23" ry="23"/>

			<ellipse transform="matrix(0.1143 -0.9934 0.9934 0.1143 256.6911 1045.7213)" class="st3" cx="714.8" cy="378.9" rx="27" ry="27"/>

			<ellipse transform="matrix(0.1143 -0.9934 0.9934 0.1143 154.2788 1100.5107)" class="st3" cx="694.3" cy="463.7" rx="24.5" ry="24.5"/>

			<ellipse transform="matrix(0.1143 -0.9934 0.9934 0.1143 154.9428 903.8995)" class="st3" cx="584.4" cy="365.1" rx="24.5" ry="24.5"/>
		<g>
			<g>
				<path class="st8" d="M658.1,429.1c5.1,2.4,10.1,4.7,15.2,7.1c4.7,2.2,8.5,4.3,13.8,3.3c10.1-1.9,20-5.8,29.4-9.9
					c3.2-1.4,3.4-5.6,2.2-8.2c-0.8-1.7-1.5-3.3-2.3-5c-1.3-2.8-5.7-3.9-8.2-2.2c-2.5,1.8-6,1.5-9,2c-3.2,0.5-6.4,1.3-9.5,2.1
					c-6.4,1.6-13.1,3.6-19.7,2.6c-7.6-1.1-10.8,10.4-3.2,11.6c8.4,1.2,16.2-0.2,24.3-2.2c4-1,8.1-2.1,12.2-2.6
					c3.9-0.5,7.6-0.7,10.9-3.1c-2.7-0.7-5.5-1.4-8.2-2.2c0.8,1.7,1.5,3.3,2.3,5c0.7-2.7,1.4-5.5,2.2-8.2c-7.5,3.3-15.3,5.9-23.2,7.9
					c-4.2,1.1-6.7-0.8-10.6-2.6c-4.2-1.9-8.3-3.9-12.5-5.8C657.2,415.5,651.1,425.8,658.1,429.1L658.1,429.1z"/>
			</g>
		</g>
		<g>
			<g>
				<path class="st8" d="M628.9,450.6c-0.5,5.6-1,11.1-1.4,16.7c-0.4,5-0.8,8.8,1.8,13.3c5.1,8.6,12,16.5,18.8,23.7
					c2.2,2.4,6.2,2.2,8.5,0c1.3-1.3,2.6-2.6,3.9-3.9c2.9-2.9,1.9-7.2-1.2-9.4c-2.1-1.5-3.3-5.8-4.5-7.9c-1.8-3-3.8-5.9-5.7-8.9
					c-3.7-5.5-7.2-10.9-8.5-17.4c-1.5-7.6-13.1-4.4-11.6,3.2c1.6,8.1,6.1,14.9,10.6,21.7c4.3,6.4,7.3,15.2,13.6,19.7
					c-0.4-3.1-0.8-6.3-1.2-9.4c-1.3,1.3-2.6,2.6-3.9,3.9c2.8,0,5.7,0,8.5,0c-5.9-6.2-11.2-12.7-16-19.8c-1.1-1.6-1.4-2.1-1.6-3.8
					c-0.3-2.4,0.5-5.4,0.7-7.9c0.4-4.6,0.8-9.2,1.2-13.7C641.6,442.9,629.6,443,628.9,450.6L628.9,450.6z"/>
			</g>
		</g>
		<g>
			<g>
				<path class="st8" d="M592.2,399.7c5.4-1.3,10.8-2.7,16.3-4c4.7-1.2,8.7-1.9,12-5.8c6.5-7.6,11.8-16.5,16.5-25.4
					c1.4-2.7,0.9-6.7-2.2-8.2c-1.6-0.8-3.3-1.6-4.9-2.4c-3.5-1.7-7.7-0.3-8.8,3.6c-0.8,2.8-4.6,5.4-6.5,7.7c-2.1,2.5-4,5.1-6,7.7
					c-3.9,5.1-7.9,10.3-13.5,13.5c-6.7,3.9-0.7,14.2,6.1,10.4c7.1-4.1,12.1-10.3,16.9-16.6c2.4-3.1,4.8-6.3,7.5-9.2
					c3-3.2,5.9-5.9,7.2-10.2c-2.9,1.2-5.9,2.4-8.8,3.6c1.6,0.8,3.3,1.6,4.9,2.4c-0.7-2.7-1.4-5.5-2.2-8.2
					c-3.9,7.4-8.3,14.6-13.4,21.4c-1.1,1.4-1.7,2.3-3.2,3.1c-2.1,1.1-5.4,1.3-7.7,1.9c-4.5,1.1-8.9,2.2-13.4,3.3
					C581.5,390,584.7,401.6,592.2,399.7L592.2,399.7z"/>
			</g>
		</g>

			<ellipse transform="matrix(0.1143 -0.9934 0.9934 0.1143 43.7769 1085.7061)" class="st3" cx="630.8" cy="518.3" rx="28.7" ry="27"/>

			<rect x="604.9" y="478.5" transform="matrix(-0.9245 -0.3812 0.3812 -0.9245 980.8334 1175.2319)" class="st1" width="3.8" height="24"/>

			<rect x="617.8" y="335.9" transform="matrix(-0.4336 -0.9011 0.9011 -0.4336 574.2034 1053.6357)" class="st1" width="0.9" height="20.9"/>

			<rect x="663.1" y="360.8" transform="matrix(-0.3483 -0.9374 0.9374 -0.3483 546.626 1125.5951)" class="st1" width="3" height="24"/>

			<rect x="675.3" y="389.7" transform="matrix(0.4815 -0.8764 0.8764 0.4815 -1.1394 801.4319)" class="st1" width="3" height="24"/>

			<rect x="730.8" y="430.8" transform="matrix(-0.9585 -0.2851 0.2851 -0.9585 1307.9855 1076.0726)" class="st1" width="3" height="24"/>

			<rect x="654.3" y="434.1" transform="matrix(0.2851 -0.9585 0.9585 0.2851 45.8612 945.2297)" class="st0" width="4.5" height="15.6"/>

			<rect x="650.7" y="354.1" transform="matrix(0.9994 -3.498235e-02 3.498235e-02 0.9994 -12.2631 23.0192)" class="st0" width="2.1" height="15.6"/>

			<rect x="584.3" y="421.5" transform="matrix(0.9994 -3.498235e-02 3.498235e-02 0.9994 -14.6601 20.7394)" class="st0" width="2.1" height="15.6"/>

			<rect x="765.9" y="367.4" transform="matrix(0.9994 -3.498235e-02 3.498235e-02 0.9994 -12.6563 27.0586)" class="st0" width="2.1" height="15.6"/>

			<rect x="634.5" y="565.2" transform="matrix(0.2851 -0.9585 0.9585 0.2851 -94.0014 1020.0677)" class="st0" width="4.5" height="15.6"/>
	</g>
</g>
<g id="Layer_1">
	<path class="st9" d="M599.2,280.4"/>
	<g>
		<g>

				<rect x="525" y="783.3" transform="matrix(-0.8477 -0.5306 0.5306 -0.8477 554.5953 1736.5909)" class="st0" width="3.3" height="10.7"/>

				<rect x="596.9" y="749.6" transform="matrix(-8.889259e-02 0.996 -0.996 -8.889259e-02 1411.7878 231.7715)" class="st1" width="6" height="24"/>

				<rect x="524.1" y="777.4" transform="matrix(0.972 0.2352 -0.2352 0.972 200.4436 -101.8309)" class="st1" width="6" height="24"/>

				<rect x="524.1" y="777.4" transform="matrix(-8.889259e-02 0.996 -0.996 -8.889259e-02 1360.3015 334.5495)" class="st1" width="6" height="24"/>

				<rect x="524.1" y="777.4" transform="matrix(-8.889259e-02 0.996 -0.996 -8.889259e-02 1360.3015 334.5495)" class="st1" width="6" height="24"/>

				<rect x="524.1" y="777.4" transform="matrix(-8.889259e-02 0.996 -0.996 -8.889259e-02 1360.3015 334.5495)" class="st1" width="6" height="24"/>

				<rect x="620.4" y="619.5" transform="matrix(-0.996 -8.889259e-02 8.889259e-02 -0.996 1174.1288 1623.8104)" class="st2" width="5.6" height="332.5"/>

				<ellipse transform="matrix(0.5306 -0.8477 0.8477 0.5306 -459.1494 745.1094)" class="st3" cx="443.1" cy="787.1" rx="31.1" ry="27"/>
			<polygon class="st4" points="634.6,620.3 606.5,934.7 364.1,782.9 			"/>
			<path class="st5" d="M681.1,864.1"/>
			<path class="st6" d="M606.6,929.7c2,2.7,11.8,16,7.3,24.8c-4,7.9-17.2,7-23,7.5c-39.4,3.7-75.1-42.2-168.5-88.6
				c-43.7-21.7-90.6-41.8-89.8-64.6c0.1-3.1,0.7-9,4.3-14.2c7.4-10.7,21.6-12.1,26-12.4"/>
			<polygon class="st7" points="369,782.7 608,932.3 593.5,934.7 354.5,785.1 			"/>

				<ellipse transform="matrix(0.5306 -0.8477 0.8477 0.5306 -412.0091 845.3931)" class="st3" cx="557.2" cy="794.7" rx="23" ry="23"/>

				<ellipse transform="matrix(0.5306 -0.8477 0.8477 0.5306 -461.1029 760.84)" class="st3" cx="456.4" cy="796.7" rx="27" ry="27"/>

				<ellipse transform="matrix(0.5306 -0.8477 0.8477 0.5306 -377.8491 775.6321)" class="st3" cx="511.3" cy="728.9" rx="24.5" ry="24.5"/>

				<ellipse transform="matrix(0.5306 -0.8477 0.8477 0.5306 -466.7877 887.7856)" class="st3" cx="568.1" cy="865.3" rx="24.5" ry="24.5"/>
			<g>
				<g>
					<path class="st8" d="M528.4,775c-3.3-4.1-6.7-8.1-10-12.2c-3.1-3.8-5.5-7.3-10.4-8.7c-9.7-2.9-20.8-3.5-30.9-3.9
						c-3.3-0.1-6,2.8-6,6c0,1.8,0,3.7-0.1,5.5c0,4.2,3.8,6.4,7.6,5.8c2.4-0.4,6.8,2,9.1,2.6c3.3,0.9,6.6,1.5,9.9,2.2
						c6.4,1.3,12.7,2.7,18.1,6.5c6.4,4.3,12.4-6,6.1-10.4c-6.7-4.6-14.7-6.3-22.5-8c-7.7-1.6-16-5.8-23.9-4.5
						c2.5,1.9,5.1,3.9,7.6,5.8c0-1.8,0-3.7,0.1-5.5c-2,2-4,4-6,6c8.8,0.3,17.4,1.3,26,3.1c3.6,0.8,5.7,4.7,8.1,7.5
						c2.9,3.5,5.9,7.1,8.8,10.6C524.9,789.4,533.3,780.9,528.4,775L528.4,775z"/>
				</g>
			</g>
			<g>
				<g>
					<path class="st8" d="M564.5,769.3c2.7-4.5,5.3-9.1,8-13.6c2.4-4.1,5.2-7.8,4.9-12.8c-0.6-10.2-3.6-20.7-6.8-30.4
						c-0.9-2.9-4.2-5.3-7.4-4.2c-1.7,0.6-3.5,1.2-5.2,1.8c-3.7,1.3-5.6,5.2-3.6,8.8c1.4,2.5,0.6,6.5,0.9,9.3
						c0.3,3.2,0.8,6.4,1.2,9.5c1,6.6,2,13.3,0.4,19.8c-1.9,7.5,9.7,10.7,11.6,3.2c2-8.2,1.1-16.2-0.1-24.4
						c-0.6-4.1-1.2-8.3-1.3-12.5c-0.1-4-0.3-7.5-2.3-11c-1.2,2.9-2.4,5.9-3.6,8.8c1.7-0.6,3.5-1.2,5.2-1.8c-2.5-1.4-4.9-2.8-7.4-4.2
						c2.7,8.2,4.8,16.6,6.1,25.2c0.6,4.1-2,6.9-4,10.4c-2.3,4-4.7,7.9-7,11.9C550.2,770,560.6,776,564.5,769.3L564.5,769.3z"/>
				</g>
			</g>
			<g>
				<g>
					<path class="st8" d="M576.5,830.8c-5.5-1.1-10.9-2.3-16.4-3.4c-4.7-1-8.9-2.2-13.5-0.2c-9.2,3.9-17.9,9.8-25.8,15.8
						c-3.4,2.5-3.8,6.1-1.2,9.4c1.1,1.4,2.3,2.9,3.4,4.3c1.9,2.5,6.5,2.2,8.5,0c2-2.2,5.5-2.8,8.2-3.9c3.1-1.3,6.1-2.9,9.2-4.4
						c5.8-3,11.8-6.3,18.4-6.8c7.6-0.6,7.7-12.6,0-12c-8.3,0.7-15.6,4-23,7.7c-3.6,1.8-7.1,3.7-10.8,5.2c-3.9,1.5-7.6,2.6-10.5,5.8
						c2.8,0,5.7,0,8.5,0c-1.1-1.4-2.3-2.9-3.4-4.3c-0.4,3.1-0.8,6.3-1.2,9.4c6.7-5,13.8-9.6,21.3-13.5c1.3-0.7,2.6-1.6,4-1.8
						c2.1-0.3,5.6,1.2,7.7,1.6c4.5,0.9,9,1.9,13.5,2.8C580.9,843.9,584.1,832.3,576.5,830.8L576.5,830.8z"/>
				</g>
			</g>

				<ellipse transform="matrix(0.5306 -0.8477 0.8477 0.5306 -321.3154 833.8726)" class="st3" cx="592.2" cy="707" rx="28.7" ry="27"/>

				<rect x="599.9" y="730.5" transform="matrix(0.6706 0.7418 -0.7418 0.6706 749.0132 -201.9023)" class="st1" width="3.8" height="24"/>

				<rect x="529.1" y="857.2" transform="matrix(3.741967e-03 1 -1 3.741967e-03 1395.162 334.8834)" class="st1" width="0.9" height="20.9"/>

				<rect x="497.5" y="811.8" transform="matrix(-8.889259e-02 0.996 -0.996 -8.889259e-02 1363.9679 400.0268)" class="st1" width="3" height="24"/>

				<rect x="499" y="780.5" transform="matrix(-0.8117 0.584 -0.584 -0.8117 1369.5663 1143.5133)" class="st1" width="3" height="24"/>

				<rect x="466.6" y="719.5" transform="matrix(0.7426 0.6697 -0.6697 0.7426 610.3203 -125.2037)" class="st1" width="3" height="24"/>

				<rect x="533.7" y="757.1" transform="matrix(-0.6697 0.7426 -0.7426 -0.6697 1463.04 879.1321)" class="st0" width="4.5" height="15.6"/>

				<rect x="505" y="831.4" transform="matrix(-0.9172 -0.3984 0.3984 -0.9172 635.8851 1810.4603)" class="st0" width="2.1" height="15.6"/>

				<rect x="593.9" y="799.1" transform="matrix(-0.9172 -0.3984 0.3984 -0.9172 819.1249 1784.0074)" class="st0" width="2.1" height="15.6"/>

				<rect x="406.7" y="769.8" transform="matrix(-0.9172 -0.3984 0.3984 -0.9172 471.8862 1653.2955)" class="st0" width="2.1" height="15.6"/>

				<rect x="596" y="653.1" transform="matrix(-0.6697 0.7426 -0.7426 -0.6697 1489.6808 659.1693)" class="st0" width="4.5" height="15.6"/>
		</g>
		<g>

				<rect x="826.6" y="688.6" transform="matrix(-0.3848 0.923 -0.923 -0.3848 1787.4646 196.4115)" class="st0" width="3.3" height="10.7"/>

				<rect x="786.6" y="614.1" transform="matrix(0.9972 -7.522921e-02 7.522921e-02 0.9972 -44.8624 61.173)" class="st1" width="6" height="24"/>

				<rect x="825.9" y="681.3" transform="matrix(7.302889e-02 -0.9973 0.9973 7.302889e-02 76.9519 1469.3944)" class="st1" width="6" height="24"/>

				<rect x="825.9" y="681.3" transform="matrix(0.9972 -7.522921e-02 7.522921e-02 0.9972 -49.8075 64.325)" class="st1" width="6" height="24"/>

				<rect x="825.9" y="681.3" transform="matrix(0.9972 -7.522921e-02 7.522921e-02 0.9972 -49.8075 64.325)" class="st1" width="6" height="24"/>

				<rect x="825.9" y="681.3" transform="matrix(0.9972 -7.522921e-02 7.522921e-02 0.9972 -49.8075 64.325)" class="st1" width="6" height="24"/>

				<rect x="806.8" y="432.9" transform="matrix(7.522921e-02 0.9972 -0.9972 7.522921e-02 1346.1123 -253.2676)" class="st2" width="5.6" height="332.5"/>

				<ellipse transform="matrix(0.3848 -0.923 0.923 0.3848 -199.7534 1253.4518)" class="st3" cx="840.4" cy="776.6" rx="27" ry="31.1"/>
			<polygon class="st4" points="644.5,615 959.2,591.2 849.2,855.2 			"/>
			<path class="st5" d="M877.5,529.2"/>
			<path class="st6" d="M954.3,592c2.3-2.4,13.9-14.2,23.3-11.3c8.4,2.7,9.7,15.8,11.2,21.4c10.1,38.3-29.4,81-59.8,180.7
				c-14.3,46.7-26.4,96.3-49.1,99.1c-3.1,0.4-9,0.8-14.7-1.9c-11.7-5.5-15.5-19.3-16.5-23.6"/>
			<polygon class="st7" points="848.1,850.4 956.6,590.1 961.4,604.1 852.9,864.4 			"/>

				<ellipse transform="matrix(0.3848 -0.923 0.923 0.3848 -101.5843 1173.1063)" class="st3" cx="829.2" cy="662.8" rx="23" ry="23"/>

				<ellipse transform="matrix(0.3848 -0.923 0.923 0.3848 -181.7436 1251.2269)" class="st3" cx="847.7" cy="761.9" rx="27" ry="27"/>

				<ellipse transform="matrix(0.3848 -0.923 0.923 0.3848 -188.5747 1154.6663)" class="st3" cx="771.9" cy="718.8" rx="24.5" ry="24.5"/>

				<ellipse transform="matrix(0.3848 -0.923 0.923 0.3848 -39.2197 1222.0814)" class="st3" cx="897.1" cy="640.5" rx="24.5" ry="24.5"/>
			<g>
				<g>
					<path class="st8" d="M815.1,693.6c-3.4,4-6.9,7.9-10.3,11.9c-3.1,3.5-6.6,6.7-7.4,11.5c-1.6,10-0.3,21.1,1,31
						c0.5,4.2,3.4,6.4,7.6,5.8c1.8-0.3,3.6-0.6,5.4-0.8c3.1-0.5,5.1-4.6,4.2-7.4c-0.9-2.8,0.3-6.1,0.6-9c0.4-3.4,0.5-6.8,0.7-10.1
						c0.3-6.5,0.3-13.4,3-19.4c3.2-7-7.1-13.1-10.4-6.1c-3.5,7.6-4.2,15.5-4.6,23.8c-0.2,3.9-0.2,7.9-0.7,11.8
						c-0.6,4.2-1.6,8-0.2,12.2c1.4-2.5,2.8-4.9,4.2-7.4c-1.8,0.3-3.6,0.6-5.4,0.8c2.5,1.9,5.1,3.9,7.6,5.8
						c-1.1-8.6-1.6-17.2-1.3-25.9c0.2-4.5,2.7-6.4,5.5-9.7c3-3.5,6-6.9,9.1-10.4C828.6,696.3,820.2,687.8,815.1,693.6L815.1,693.6z"
						/>
				</g>
			</g>
			<g>
				<g>
					<path class="st8" d="M802.5,659.6c-5.2-2-10.4-4-15.6-6c-4.7-1.8-8.3-3.2-13.3-1.9c-9.7,2.6-19.1,7-28,11.6
						c-2.9,1.5-3.7,5.5-2.2,8.2c0.9,1.6,1.8,3.2,2.7,4.8c2,3.7,6.5,3.5,9.4,1.2c2.1-1.7,6.7-1.5,9.3-2.2c3.2-0.8,6.3-1.9,9.4-2.8
						c6.4-2,12.6-3.9,19.4-3.4c7.7,0.6,7.7-11.4,0-12c-8.4-0.7-16.4,1.8-24.2,4.4c-7.2,2.3-16.2,2.8-22.2,7.6
						c3.1,0.4,6.3,0.8,9.4,1.2c-0.9-1.6-1.8-3.2-2.7-4.8c-0.7,2.7-1.4,5.5-2.2,8.2c7.6-3.9,15.3-7.2,23.4-9.8
						c4.2-1.3,7.3,0.9,11.4,2.4c4.3,1.7,8.6,3.3,12.9,5C806.5,673.9,809.6,662.3,802.5,659.6L802.5,659.6z"/>
				</g>
			</g>
			<g>
				<g>
					<path class="st8" d="M861.6,638.5c-0.2,5.6-0.4,11.2-0.7,16.7c-0.2,4.9-0.5,9,2.3,13.2c5.5,8.4,12.7,15.9,19.9,22.8
						c2.3,2.2,6.3,2.4,8.5,0c1.2-1.4,2.5-2.7,3.7-4.1c2.7-2.9,2.1-7.3-1.2-9.4c-2.2-1.4-3.5-5.4-5-7.6c-1.9-2.9-4.1-5.7-6.1-8.6
						c-3.9-5.3-7.8-10.6-9.4-17c-1.9-7.5-13.5-4.3-11.6,3.2c2,8,6.7,14.6,11.5,21.2c2.4,3.2,4.8,6.5,6.9,10c2.2,3.7,3.9,6.8,7.6,9.1
						c-0.4-3.1-0.8-6.3-1.2-9.4c-1.2,1.4-2.5,2.7-3.7,4.1c2.8,0,5.7,0,8.5,0c-6.1-5.9-11.9-12.1-16.9-19c-1-1.4-1.6-2.2-1.9-3.7
						c-0.5-2.3,0.2-5.5,0.3-7.9c0.2-4.6,0.4-9.2,0.5-13.8C873.9,630.7,861.9,630.7,861.6,638.5L861.6,638.5z"/>
				</g>
			</g>

				<ellipse transform="matrix(0.3848 -0.923 0.923 0.3848 -139.7058 1075.6351)" class="st3" cx="737" cy="642.6" rx="27" ry="28.7"/>

				<rect x="768.5" y="615.3" transform="matrix(0.6221 -0.7829 0.7829 0.6221 -200.0066 840.1578)" class="st1" width="3.8" height="24"/>

				<rect x="905.3" y="667.7" transform="matrix(0.9859 -0.1673 0.1673 0.9859 -100.6729 161.0445)" class="st1" width="0.9" height="20.9"/>

				<rect x="866" y="703.4" transform="matrix(0.9972 -7.522921e-02 7.522921e-02 0.9972 -51.3612 67.2878)" class="st1" width="3" height="24"/>

				<rect x="834.8" y="707.1" transform="matrix(0.709 0.7053 -0.7053 0.709 750.5739 -380.5391)" class="st1" width="3" height="24"/>

				<rect x="779.9" y="749.1" transform="matrix(0.5392 -0.8422 0.8422 0.5392 -280.8791 1008.7884)" class="st1" width="3" height="24"/>

				<rect x="801" y="680.7" transform="matrix(0.8422 0.5392 -0.5392 0.8422 498.0532 -324.4788)" class="st0" width="4.5" height="15.6"/>

				<rect x="880.4" y="698.2" transform="matrix(-0.243 0.97 -0.97 -0.243 1780.4576 22.4724)" class="st0" width="2.1" height="15.6"/>

				<rect x="834.1" y="615.8" transform="matrix(-0.243 0.97 -0.97 -0.243 1642.8982 -34.9684)" class="st0" width="2.1" height="15.6"/>

				<rect x="835.8" y="805.2" transform="matrix(-0.243 0.97 -0.97 -0.243 1828.8434 198.8514)" class="st0" width="2.1" height="15.6"/>

				<rect x="688.2" y="636.4" transform="matrix(0.8422 0.5392 -0.5392 0.8422 456.3163 -270.6414)" class="st0" width="4.5" height="15.6"/>
		</g>
		<g>

				<rect x="483.6" y="472" transform="matrix(0.6757 -0.7371 0.7371 0.6757 -194.5171 512.4808)" class="st0" width="3.3" height="10.7"/>

				<rect x="495.6" y="542.3" transform="matrix(-0.9633 -0.2684 0.2684 -0.9633 830.0847 1222.0778)" class="st1" width="6" height="24"/>

				<rect x="481.4" y="465.7" transform="matrix(-0.4079 0.913 -0.913 -0.4079 1118.1558 230.2523)" class="st1" width="6" height="24"/>

				<rect x="481.4" y="465.7" transform="matrix(-0.9633 -0.2684 0.2684 -0.9633 822.845 1067.8922)" class="st1" width="6" height="24"/>

				<rect x="481.4" y="465.7" transform="matrix(-0.9633 -0.2684 0.2684 -0.9633 822.845 1067.8922)" class="st1" width="6" height="24"/>

				<rect x="481.4" y="465.7" transform="matrix(-0.9633 -0.2684 0.2684 -0.9633 822.845 1067.8922)" class="st1" width="6" height="24"/>

				<rect x="467.8" y="406.6" transform="matrix(0.2684 -0.9633 0.9633 0.2684 -207.5664 872.4004)" class="st2" width="5.6" height="332.5"/>

				<ellipse transform="matrix(0.6757 -0.7371 0.7371 0.6757 -128.7755 498.2809)" class="st3" cx="502" cy="395.5" rx="27" ry="31.1"/>
			<polygon class="st4" points="631.2,614.1 327.2,529.4 520.4,318.6 			"/>
			<path class="st5" d="M383,615.5"/>
			<path class="st6" d="M332.1,530.4c-3,1.5-17.9,8.7-25.7,2.7c-7-5.4-3.7-18.2-3.2-24c3.5-39.4,55.2-66.2,117.7-149.6
				c29.3-39.1,57.6-81.5,79.9-76.5c3,0.7,8.7,2.3,13.2,6.8c9.2,9.2,8,23.4,7.4,27.8"/>
			<polygon class="st7" points="519.8,323.4 329.2,531.3 329.5,516.6 520,308.7 			"/>

				<ellipse transform="matrix(0.6757 -0.7371 0.7371 0.6757 -219.6142 513.439)" class="st3" cx="473.8" cy="506.3" rx="23" ry="23"/>

				<ellipse transform="matrix(0.6757 -0.7371 0.7371 0.6757 -140.9218 493.1795)" class="st3" cx="490.1" cy="406.8" rx="27" ry="27"/>

				<ellipse transform="matrix(0.6757 -0.7371 0.7371 0.6757 -171.4838 556.4619)" class="st3" cx="546.8" cy="473.1" rx="24.5" ry="24.5"/>

				<ellipse transform="matrix(0.6757 -0.7371 0.7371 0.6757 -241.2097 460.0759)" class="st3" cx="402.3" cy="504.2" rx="24.5" ry="24.5"/>
			<g>
				<g>
					<path class="st8" d="M498,481.8c4.9-2.7,9.8-5.4,14.6-8.1c4.2-2.4,7.9-4.2,10.1-8.7c4.3-9.1,7.1-19.1,9.2-28.8
						c0.7-3-0.9-6.7-4.2-7.4c-1.8-0.3-3.6-0.7-5.4-1c-3.8-0.7-7.5,1.7-7.6,5.8c-0.1,2.8-2.8,6.1-4,8.6c-1.4,3.1-2.7,6.2-4,9.3
						c-2.4,6-4.9,12.1-9.5,16.8c-5.4,5.5,3,14,8.5,8.5c5.8-5.8,9-13.1,12-20.6c1.6-3.8,3.1-7.7,5-11.3c2-3.7,3.8-6.9,3.9-11.2
						c-2.5,1.9-5.1,3.9-7.6,5.8c1.8,0.3,3.6,0.7,5.4,1c-1.4-2.5-2.8-4.9-4.2-7.4c-1.8,8.2-4.1,16.3-7.3,24.1c-0.6,1.6-1,2.7-2.2,3.9
						c-1.7,1.6-4.9,2.7-6.9,3.8c-4,2.2-8,4.5-12.1,6.7C485.2,475.2,491.3,485.6,498,481.8L498,481.8z"/>
				</g>
			</g>
			<g>
				<g>
					<path class="st8" d="M497.1,517.8c4,3.4,7.9,6.9,11.9,10.3c3.5,3.1,6.7,6.6,11.5,7.4c10,1.5,21.1,0.3,31-1
						c4.2-0.5,6.5-3.4,5.8-7.6c-0.3-1.8-0.6-3.6-0.9-5.4c-0.5-3.1-4.6-5.1-7.4-4.2c-2.8,0.9-6.1-0.2-9-0.6
						c-3.4-0.4-6.8-0.5-10.1-0.6c-6.5-0.3-13.4-0.2-19.4-3c-7-3.2-13.1,7.2-6.1,10.4c7.6,3.5,15.5,4.2,23.8,4.6
						c3.9,0.2,7.9,0.2,11.8,0.7c4.2,0.5,8,1.6,12.2,0.1c-2.5-1.4-4.9-2.8-7.4-4.2c0.3,1.8,0.6,3.6,0.9,5.4c1.9-2.5,3.9-5.1,5.8-7.6
						c-8.6,1.1-17.2,1.7-25.9,1.4c-4.5-0.1-6.4-2.7-9.7-5.5c-3.5-3-6.9-6-10.4-9C499.7,504.2,491.2,512.7,497.1,517.8L497.1,517.8z"
						/>
				</g>
			</g>
			<g>
				<g>
					<path class="st8" d="M435.2,517.7c2.1-5.2,4.2-10.3,6.3-15.5c1.9-4.7,3.3-8.2,2.1-13.3c-2.4-9.7-6.6-19.2-11-28.2
						c-1.5-3-5.5-3.6-8.2-2.2c-1.6,0.9-3.2,1.7-4.9,2.6c-2.6,1.4-4.1,5.7-2.2,8.2c1.9,2.5,1.9,5.8,2.5,8.9c0.7,3.5,1.8,6.9,2.8,10.3
						c2,6.7,3.9,13.2,3.2,20.3c-0.8,7.7,11.2,7.6,12,0c0.8-8-1.4-15.8-3.7-23.5c-1.2-4-2.4-7.9-3.2-12c-0.7-3.6-1-7-3.4-10
						c-0.7,2.7-1.4,5.5-2.2,8.2c1.6-0.9,3.2-1.7,4.9-2.6c-2.7-0.7-5.5-1.4-8.2-2.2c3.8,7.6,7,15.5,9.3,23.6
						c1.2,4.2-1.1,7.4-2.7,11.3c-1.7,4.3-3.5,8.5-5.2,12.8C420.7,521.7,432.3,524.8,435.2,517.7L435.2,517.7z"/>
				</g>
			</g>

				<ellipse transform="matrix(0.6757 -0.7371 0.7371 0.6757 -230.7976 588.5927)" class="st3" cx="553.6" cy="556.6" rx="27" ry="28.7"/>

				<rect x="515.1" y="547.7" transform="matrix(-0.8513 0.5246 -0.5246 -0.8513 1250.8481 764.934)" class="st1" width="3.8" height="24"/>

				<rect x="406.6" y="455.4" transform="matrix(-0.984 -0.178 0.178 -0.984 724.7252 996.6754)" class="st1" width="0.9" height="20.9"/>

				<rect x="454.2" y="431.8" transform="matrix(-0.9633 -0.2684 0.2684 -0.9633 775.5289 993.6257)" class="st1" width="3" height="24"/>

				<rect x="484.7" y="438.9" transform="matrix(-0.4268 -0.9043 0.9043 -0.4268 285.9948 1083.093)" class="st1" width="3" height="24"/>

				<rect x="550.7" y="418.1" transform="matrix(-0.7935 0.6086 -0.6086 -0.7935 1252.0529 435.4111)" class="st1" width="3" height="24"/>

				<rect x="504.6" y="483.1" transform="matrix(-0.6086 -0.7935 0.7935 -0.6086 425.8827 1191.8416)" class="st0" width="4.5" height="15.6"/>

				<rect x="438.3" y="440.1" transform="matrix(0.5584 -0.8296 0.8296 0.5584 -177.5602 562.2645)" class="st0" width="2.1" height="15.6"/>

				<rect x="453.9" y="533.4" transform="matrix(0.5584 -0.8296 0.8296 0.5584 -248.0425 616.3696)" class="st0" width="2.1" height="15.6"/>

				<rect x="516.7" y="354.6" transform="matrix(0.5584 -0.8296 0.8296 0.5584 -72.0091 589.5308)" class="st0" width="2.1" height="15.6"/>

				<rect x="595.6" y="563.2" transform="matrix(-0.6086 -0.7935 0.7935 -0.6086 508.7256 1392.9226)" class="st0" width="4.5" height="15.6"/>
		</g>
		<g>

				<rect x="696.3" y="804.8" transform="matrix(-0.9525 0.3044 -0.3044 -0.9525 1609.4362 1369.4425)" class="st0" width="3.3" height="10.7"/>

				<rect x="721.6" y="724.8" transform="matrix(0.703 0.7112 -0.7112 0.703 739.2408 -296.523)" class="st1" width="6" height="24"/>

				<rect x="695.9" y="798.3" transform="matrix(0.8073 -0.5901 0.5901 0.8073 -343.4853 568.4994)" class="st1" width="6" height="24"/>

				<rect x="695.9" y="798.3" transform="matrix(0.703 0.7112 -0.7112 0.703 783.8859 -256.3794)" class="st1" width="6" height="24"/>

				<rect x="695.9" y="798.3" transform="matrix(0.703 0.7112 -0.7112 0.703 783.8859 -256.3794)" class="st1" width="6" height="24"/>

				<rect x="695.9" y="798.3" transform="matrix(0.703 0.7112 -0.7112 0.703 783.8859 -256.3794)" class="st1" width="6" height="24"/>

				<rect x="755.4" y="568.3" transform="matrix(-0.7112 0.703 -0.703 -0.7112 1813.7198 724.0522)" class="st2" width="5.6" height="332.5"/>

				<ellipse transform="matrix(0.9525 -0.3044 0.3044 0.9525 -235.2041 237.099)" class="st3" cx="642.8" cy="872.9" rx="27" ry="31.1"/>
			<polygon class="st4" points="639.2,619 861,843.5 588.6,930.6 			"/>
			<path class="st5" d="M855.4,741"/>
			<path class="st6" d="M857.3,840.2c3.3,0.2,19.8,1.4,23.7,10.4c3.4,8.1-5.8,17.6-9.1,22.4c-22.6,32.5-80.7,30-176.4,71.4
				c-44.8,19.4-90.5,42.2-107.3,26.8c-2.3-2.1-6.4-6.3-8-12.4c-3.4-12.5,4.7-24.3,7.4-27.9"/>
			<polygon class="st7" points="591.5,926.7 860.2,840.8 852.7,853.5 584,939.3 			"/>

				<ellipse transform="matrix(0.9525 -0.3044 0.3044 0.9525 -206.4062 257.3955)" class="st3" cx="722.3" cy="790.7" rx="23" ry="23"/>

				<ellipse transform="matrix(0.9525 -0.3044 0.3044 0.9525 -233.2699 241.7529)" class="st3" cx="658.7" cy="869" rx="27" ry="27"/>

				<ellipse transform="matrix(0.9525 -0.3044 0.3044 0.9525 -207.9388 232.7466)" class="st3" cx="642.5" cy="783.3" rx="24.5" ry="24.5"/>

				<ellipse transform="matrix(0.9525 -0.3044 0.3044 0.9525 -214.8754 277.7247)" class="st3" cx="783.3" cy="828" rx="24.5" ry="24.5"/>
			<g>
				<g>
					<path class="st8" d="M689.2,799.9c-5.6-0.1-11.2-0.1-16.7-0.2c-4.9-0.1-9-0.3-13.2,2.6c-8.2,5.8-15.6,13.1-22.3,20.5
						c-2.1,2.3-2.6,6.3,0,8.5c1.4,1.2,2.8,2.4,4.2,3.6c2.9,2.5,7.3,2.3,9.4-1.2c1.4-2.4,5.5-4,7.8-5.6c2.8-1.9,5.4-4,8-6.1
						c5.1-4,10.3-8,16.6-9.8c7.4-2.1,4.3-13.7-3.2-11.6c-7.9,2.2-14.3,7-20.7,11.9c-3.3,2.5-6.5,5.1-10,7.3
						c-3.6,2.2-6.7,4.1-8.9,7.7c3.1-0.4,6.3-0.8,9.4-1.2c-1.4-1.2-2.8-2.4-4.2-3.6c0,2.8,0,5.7,0,8.5c5.7-6.2,11.7-12.1,18.3-17.3
						c1.3-1.1,2.2-1.8,3.8-2.2c2.2-0.6,5.6,0.1,7.9,0.1c4.6,0.1,9.2,0.1,13.8,0.2C696.9,812,696.9,800,689.2,799.9L689.2,799.9z"/>
				</g>
			</g>
			<g>
				<g>
					<path class="st8" d="M707.8,769.2c-1.8-5.3-3.7-10.5-5.5-15.8c-1.7-4.9-2.8-9-7.2-12.1c-8.5-5.9-18.1-10.3-27.6-14.2
						c-3.2-1.3-6.3,1.5-7.4,4.2c-0.7,1.7-1.3,3.4-2,5.1c-1.1,2.9,1.2,6.8,4.2,7.4c3.2,0.6,5.8,3.7,8.4,5.6c2.6,1.9,5.4,3.6,8.1,5.3
						c5.4,3.4,11.2,6.7,14.9,12c4.4,6.2,14.9,0.2,10.4-6.1c-4.7-6.6-11.1-11.2-18-15.5c-3.4-2.1-6.8-4.1-10-6.5
						c-3.5-2.6-6.3-5.5-10.7-6.4c1.4,2.5,2.8,4.9,4.2,7.4c0.7-1.7,1.3-3.4,2-5.1c-2.5,1.4-4.9,2.8-7.4,4.2
						c7.6,3.1,14.9,6.8,21.9,11.1c3.7,2.3,4.2,5.5,5.6,9.5c1.5,4.3,3,8.7,4.6,13C698.8,779.6,710.4,776.5,707.8,769.2L707.8,769.2z"
						/>
				</g>
			</g>
			<g>
				<g>
					<path class="st8" d="M761.5,800c-4.1,3.2-8.3,6.5-12.4,9.7c-3.9,3-7.4,5.3-8.9,10.2c-3.1,9.7-4,20.6-4.6,30.8
						c-0.2,3.3,2.9,5.9,6,6c1.8,0.1,3.7,0.1,5.5,0.2c4.3,0.2,6.3-3.9,5.8-7.6c-0.3-2.3,2.3-6.8,2.9-9.1c0.9-3.2,1.7-6.5,2.4-9.8
						c1.5-6.4,3.1-12.6,7-18c4.5-6.3-5.9-12.3-10.4-6.1c-4.7,6.6-6.7,14.5-8.5,22.3c-1.8,7.7-6.1,15.8-5,23.8
						c1.9-2.5,3.9-5.1,5.8-7.6c-1.8-0.1-3.7-0.1-5.5-0.2c2,2,4,4,6,6c0.5-8.7,1.6-17.5,3.8-25.9c0.9-3.5,5-5.6,7.8-7.8
						c3.6-2.8,7.2-5.7,10.9-8.5C776,803.7,767.5,795.3,761.5,800L761.5,800z"/>
				</g>
			</g>

				<ellipse transform="matrix(0.9525 -0.3044 0.3044 0.9525 -183.1576 239.9483)" class="st3" cx="678" cy="707.4" rx="27" ry="28.7"/>

				<rect x="709.4" y="710.9" transform="matrix(0.9995 -3.277859e-02 3.277859e-02 0.9995 -23.3133 23.7031)" class="st1" width="3.8" height="24"/>

				<rect x="759.7" y="848.5" transform="matrix(0.7658 0.6431 -0.6431 0.7658 730.3904 -287.6408)" class="st1" width="0.9" height="20.9"/>
			<rect x="705.5" y="842" transform="matrix(0.703 0.7112 -0.7112 0.703 817.3708 -249.1718)" class="st1" width="3" height="24"/>

				<rect x="682.5" y="820.6" transform="matrix(-7.845337e-02 0.9969 -0.9969 -7.845337e-02 1567.7279 216.0563)" class="st1" width="3" height="24"/>

				<rect x="615" y="805.9" transform="matrix(0.9909 -0.1344 0.1344 0.9909 -104.3041 90.2407)" class="st1" width="3" height="24"/>

				<rect x="683.6" y="779.9" transform="matrix(0.1344 0.9909 -0.9909 0.1344 1374.286 2.1608)" class="st0" width="4.5" height="15.6"/>

				<rect x="722.2" y="850.7" transform="matrix(-0.8966 0.4429 -0.4429 -0.8966 1751.8699 1307.9279)" class="st0" width="2.1" height="15.6"/>

				<rect x="755" y="762" transform="matrix(-0.8966 0.4429 -0.4429 -0.8966 1774.7509 1125.2156)" class="st0" width="2.1" height="15.6"/>

				<rect x="611.7" y="886" transform="matrix(-0.8966 0.4429 -0.4429 -0.8966 1557.9468 1423.8345)" class="st0" width="2.1" height="15.6"/>

				<rect x="646" y="679.3" transform="matrix(0.1344 0.9909 -0.9909 0.1344 1242.0759 -47.5787)" class="st0" width="4.5" height="15.6"/>
		</g>
		<g>
			<polygon class="st0" points="435.7,644.7 436.2,647.5 425.5,649.1 425,646.2 			"/>
			<polygon class="st1" points="489.9,672 494.9,668.9 508.9,685.6 503.9,688.8 			"/>
			<polygon class="st1" points="420.8,654.9 418.1,650.3 439.8,640.4 442.5,645 			"/>
			<polygon class="st1" points="420.8,640.8 425.8,637.7 439.8,654.5 434.8,657.6 			"/>
			<polygon class="st1" points="420.8,640.8 425.8,637.7 439.8,654.5 434.8,657.6 			"/>
			<polygon class="st1" points="420.8,640.8 425.8,637.7 439.8,654.5 434.8,657.6 			"/>
			<polygon class="st2" points="631.9,619.7 635.1,623.6 360.1,796.3 356.8,792.4 			"/>
			<path class="st3" d="M381.1,614.8c-17.2,2.5-32.9-5.8-35.1-18.6c-2.2-12.8,10.1-25.2,27.3-27.7c17.2-2.5,32.9,5.8,35.1,18.6
				C410.5,599.9,398.3,612.3,381.1,614.8z"/>
			<polygon class="st4" points="631.2,619.5 370.1,783.5 328.7,537.9 			"/>
			<path class="st5" d="M473.3,791.1"/>
			<path class="st6" d="M374,780.6c-0.7,2.8-4.7,16.9-14.4,19.1c-8.7,2-16.6-7.1-20.8-10.6c-28.7-23.5-16.5-73.3-41.8-160.9
				c-11.8-41-27-83.1-8.8-95.8c2.5-1.7,7.4-4.7,13.8-5.4c13.1-1.4,23.5,7,26.6,9.7"/>
			<polygon class="st7" points="332.1,540.9 372.9,783.1 361.5,775 320.7,532.9 			"/>
			<path class="st3" d="M449.3,690c-12.7,1.9-24.5-5.5-26.4-16.4s7-21.2,19.7-23.1c12.7-1.9,24.5,5.5,26.4,16.4
				C470.8,677.8,462,688.1,449.3,690z"/>
			<path class="st3" d="M382.3,629c-14.9,2.2-28.8-6.4-30.9-19.2c-2.2-12.8,8.2-24.9,23.1-27.1c14.9-2.2,28.8,6.4,30.9,19.2
				C407.6,614.7,397.2,626.8,382.3,629z"/>
			<path class="st3" d="M470.2,623.4c-13.6,2-26.1-5.8-28.1-17.5c-2-11.6,7.4-22.7,21-24.6c13.6-2,26.1,5.8,28.1,17.5
				C493.2,610.4,483.8,621.4,470.2,623.4z"/>
			<path class="st3" d="M402.1,739.3c-13.6,2-26.1-5.8-28.1-17.5s7.4-22.7,21-24.6c13.6-2,26.1,5.8,28.1,17.5
				S415.6,737.4,402.1,739.3z"/>
			<g>
				<g>
					<path class="st8" d="M442.1,641.4c1-5,2.1-10,3.1-14.9c0.9-4.5,1.9-8.2-0.4-12.5c-4.4-8.2-10.9-15.6-17.2-22.4
						c-1.7-1.8-5.2-2.5-7.3-0.9c-1.4,1.1-2.9,2.1-4.3,3.2c-3.8,2.8-3.9,7.6,0,10.4c1.6,1.2,2.5,4.9,3.5,6.6c1.4,2.6,3,5,4.6,7.4
						c2.9,4.5,6.5,9.4,7.2,14.8c1,7.6,13,7.6,12,0c-1-7.9-4.6-14.3-8.8-20.9c-3.9-6-6.4-14.2-12.3-18.4c0,3.5,0,6.9,0,10.4
						c1.4-1.1,2.9-2.1,4.3-3.2c-2.4-0.3-4.8-0.6-7.3-0.9c5,5.4,9.6,11,13.7,17.2c0.9,1.4,1.4,1.9,1.5,3.2c0.1,1.7-0.8,3.9-1.2,5.6
						c-0.8,4-1.7,8.1-2.5,12.1C428.9,645.8,440.5,649,442.1,641.4L442.1,641.4z"/>
				</g>
			</g>
			<g>
				<g>
					<path class="st8" d="M470.8,661c5.2-0.9,10.5-1.8,15.7-2.7c4.8-0.8,9.1-1.2,12.9-4.5c7.2-6.4,13.3-14.3,18.9-22.1
						c1.8-2.5,0.6-6.9-2.2-8.2c-1.6-0.8-3.2-1.5-4.8-2.3c-2.6-1.3-6.8-1-8.2,2.2c-1.2,2.7-4.4,4.4-6.6,6.3c-2.5,2.2-4.9,4.6-7.2,6.9
						c-4.7,4.7-9.3,9.1-15.5,11.8c-7,3.1-0.9,13.5,6.1,10.4c7-3.1,12.5-8.4,17.9-13.7c2.5-2.5,5.1-5.1,7.8-7.4
						c3-2.5,6.3-4.5,7.9-8.2c-2.7,0.7-5.5,1.4-8.2,2.2c1.6,0.8,3.2,1.5,4.8,2.3c-0.7-2.7-1.4-5.5-2.2-8.2
						c-4.7,6.6-9.9,13.1-15.8,18.6c-2.6,2.4-7.3,2.3-10.7,2.9c-4.6,0.8-9.2,1.6-13.8,2.3C460,650.7,463.2,662.2,470.8,661L470.8,661
						z"/>
				</g>
			</g>
			<g>
				<g>
					<path class="st8" d="M430.4,703c-2.8-4.4-5.6-8.7-8.4-13.1c-2.6-4-4.5-7.1-9.2-8.9c-9.1-3.5-18.8-5.7-28.4-7.4
						c-3.1-0.5-6.6,0.8-7.4,4.2c-0.4,1.6-0.7,3.1-1.1,4.7c-0.9,3.8,1.8,7.6,5.8,7.6c2.9,0,6.1,2.2,8.8,3.3c3.1,1.2,6.2,2.3,9.3,3.4
						c5.8,2,12.1,3.8,16.9,7.8c5.9,4.9,14.4-3.5,8.5-8.5c-6.1-5.1-13.3-7.9-20.7-10.4c-3.8-1.3-7.7-2.5-11.4-4.1
						c-3.8-1.7-7-3.4-11.3-3.4c1.9,2.5,3.9,5.1,5.8,7.6c0.4-1.6,0.7-3.1,1.1-4.7c-2.5,1.4-4.9,2.8-7.4,4.2c8,1.4,15.8,3.2,23.5,5.7
						c1.5,0.5,3.5,0.8,4.8,1.7c1.3,1,2.3,3.6,3.2,4.9c2.5,3.8,4.9,7.6,7.4,11.4C424.2,715.5,434.6,709.5,430.4,703L430.4,703z"/>
				</g>
			</g>
			<path class="st3" d="M540.4,665.4c-15.9,2.3-30.5-6.2-32.6-19c-2.2-12.8,9-25.1,24.8-27.4s30.5,6.2,32.6,19
				S556.3,663,540.4,665.4z"/>
			<polygon class="st1" points="503.2,669.5 503.7,666.2 527.8,668.5 527.2,671.8 			"/>
			<polygon class="st1" points="364.3,688 365,687.5 378.7,701.1 378,701.6 			"/>
			<polygon class="st1" points="377.1,641.7 379.6,640.2 393.6,656.9 391.1,658.5 			"/>
			<polygon class="st1" points="412,621.6 414.9,622.2 409,642.6 406.1,642 			"/>
			<polygon class="st1" points="424.3,576.9 424.3,574.3 448.6,574.4 448.5,577 			"/>
			<polygon class="st0" points="453,632.4 457.6,632.4 457.1,646 452.5,646 			"/>
			<polygon class="st0" points="385.4,659.8 386,661.5 370.8,665.8 370.2,664.1 			"/>
			<polygon class="st0" points="468.4,698.9 469,700.6 453.9,704.8 453.3,703.1 			"/>
			<polygon class="st0" points="368.6,560.2 369.2,561.9 354.1,566.2 353.5,564.5 			"/>
			<polygon class="st0" points="588.6,620.5 593.2,620.5 592.7,634.1 588.1,634.1 			"/>
		</g>
		<g>

				<rect x="801.8" y="504.8" transform="matrix(0.5428 0.8398 -0.8398 0.5428 795.7439 -441.6106)" class="st0" width="3.3" height="10.7"/>

				<rect x="722.7" y="491.6" transform="matrix(0.5027 -0.8645 0.8645 0.5027 -74.4628 877.748)" class="st1" width="6" height="24"/>

				<rect x="800.4" y="497.2" transform="matrix(-0.7806 -0.625 0.625 -0.7806 1112.2461 1408.8258)" class="st1" width="6" height="24"/>

				<rect x="800.4" y="497.2" transform="matrix(0.5027 -0.8645 0.8645 0.5027 -40.6862 947.7049)" class="st1" width="6" height="24"/>

				<rect x="800.4" y="497.2" transform="matrix(0.5027 -0.8645 0.8645 0.5027 -40.6862 947.7049)" class="st1" width="6" height="24"/>

				<rect x="800.4" y="497.2" transform="matrix(0.5027 -0.8645 0.8645 0.5027 -40.6862 947.7049)" class="st1" width="6" height="24"/>

				<rect x="712" y="305.6" transform="matrix(0.8645 0.5027 -0.5027 0.8645 334.0699 -295.3813)" class="st2" width="5.6" height="332.5"/>

				<ellipse transform="matrix(0.8398 -0.5428 0.5428 0.8398 -156.2067 564.4752)" class="st3" cx="878.5" cy="546.9" rx="31.1" ry="27"/>
			<polygon class="st4" points="634.4,616.8 793,344 948.3,584.2 			"/>
			<path class="st5" d="M695.6,376.3"/>
			<path class="st6" d="M790.8,348.5c-0.7-3.2-3.9-19.5,3.9-25.6c7-5.4,18.5,1,24,2.9c37.3,13.3,50.1,70.1,115,151.6
				c30.4,38.2,64.4,76.3,53.9,96.6c-1.4,2.8-4.4,7.8-9.9,11c-11.2,6.5-24.7,1.8-28.8,0.2"/>
			<polygon class="st7" points="943.8,582.4 790.7,345.5 804.9,349.5 957.9,586.3 			"/>

				<ellipse transform="matrix(0.8398 -0.5428 0.5428 0.8398 -142.261 501.2699)" class="st3" cx="778.3" cy="491.7" rx="23" ry="23"/>

				<ellipse transform="matrix(0.8398 -0.5428 0.5428 0.8398 -149.6942 557.8938)" class="st3" cx="870.6" cy="532.6" rx="27" ry="27"/>

				<ellipse transform="matrix(0.8398 -0.5428 0.5428 0.8398 -182.9386 521.3661)" class="st3" cx="792" cy="570.7" rx="24.5" ry="24.5"/>

				<ellipse transform="matrix(0.8398 -0.5428 0.5428 0.8398 -101.8019 501.1876)" class="st3" cx="798.4" cy="423.1" rx="24.5" ry="24.5"/>
			<g>
				<g>
					<path class="st8" d="M795.9,521.3c1.4,5.4,2.8,10.8,4.2,16.2c1.2,4.7,2,8.7,5.9,12c7.7,6.4,16.7,11.6,25.6,16.2
						c2.7,1.4,6.7,0.9,8.2-2.2c0.8-1.7,1.6-3.3,2.4-5c1.7-3.5,0.4-7.7-3.6-8.8c-2.9-0.8-5.5-4.5-7.8-6.4c-2.5-2.1-5.1-4-7.7-5.9
						c-5.1-3.8-10.4-7.8-13.7-13.4c-3.9-6.6-14.3-0.6-10.4,6.1c4.2,7,10.4,11.9,16.8,16.8c3.2,2.4,6.4,4.7,9.3,7.4
						c3.3,3,5.9,5.8,10.3,7.1c-1.2-2.9-2.4-5.9-3.6-8.8c-0.8,1.7-1.6,3.3-2.4,5c2.7-0.7,5.5-1.4,8.2-2.2
						c-7.5-3.8-14.7-8.1-21.5-13.1c-1.3-1-2.4-1.7-3.2-3.1c-1.1-2-1.4-5.4-2-7.6c-1.2-4.5-2.3-8.9-3.5-13.4
						C805.6,510.7,794,513.8,795.9,521.3L795.9,521.3z"/>
				</g>
			</g>
			<g>
				<g>
					<path class="st8" d="M761.4,511.3c-4.6,3.2-9.2,6.3-13.8,9.5c-4.3,2.9-8,5.1-9.8,10.1c-3.5,9.7-5.2,20.2-6.5,30.4
						c-0.4,3.4,3.1,5.7,6,6c1.8,0.2,3.6,0.4,5.5,0.5c3.1,0.3,6.2-3,6-6c-0.2-3,1.9-6.2,3-9c1.2-3.1,2.2-6.4,3.1-9.6
						c1.8-6.1,3.6-12.7,7.7-17.7c4.9-5.9-3.6-14.5-8.5-8.5c-5.2,6.4-7.9,13.7-10.3,21.5c-1.2,4-2.3,8-3.9,11.8
						c-1.6,3.8-3.4,7.2-3.1,11.5c2-2,4-4,6-6c-1.8-0.2-3.6-0.4-5.5-0.5c2,2,4,4,6,6c1-8.1,2.7-16.1,5-24c1.3-4.2,4.2-5.5,7.7-7.9
						c3.8-2.6,7.6-5.2,11.4-7.8C773.8,517.4,767.8,506.9,761.4,511.3L761.4,511.3z"/>
				</g>
			</g>
			<g>
				<g>
					<path class="st8" d="M777,451.5c4.2,3.1,8.4,6.3,12.6,9.4c4,3,7.1,5.7,12.3,6c10.2,0.4,21-1.5,30.9-3.6
						c3.3-0.7,4.9-4.4,4.2-7.4c-0.4-1.8-0.8-3.6-1.2-5.4c-1-4.2-5.4-5-8.8-3.6c-2.2,0.9-6.8-0.4-9.2-0.5c-3.4-0.1-6.8,0.1-10.2,0.2
						c-6.6,0.2-13.1,0.3-19.4-2c-7.3-2.7-10.4,8.9-3.2,11.6c7.8,2.9,16.1,2.6,24.3,2.4c7.8-0.3,16.5,1.7,23.8-1.3
						c-2.9-1.2-5.9-2.4-8.8-3.6c0.4,1.8,0.8,3.6,1.2,5.4c1.4-2.5,2.8-4.9,4.2-7.4c-8.6,1.8-17.3,3-26,3.1c-3.6,0.1-6.7-3.4-9.5-5.5
						c-3.7-2.8-7.4-5.5-11.1-8.3C776.9,436.5,770.9,446.9,777,451.5L777,451.5z"/>
				</g>
			</g>

				<ellipse transform="matrix(0.8398 -0.5428 0.5428 0.8398 -188.3292 474.2634)" class="st3" cx="709.5" cy="556.3" rx="28.7" ry="27"/>

				<rect x="713.9" y="508.1" transform="matrix(-0.2929 -0.9561 0.9561 -0.2929 428.19 1356.8387)" class="st1" width="3.8" height="24"/>

				<rect x="833.9" y="426.9" transform="matrix(0.4205 -0.9073 0.9073 0.4205 86.7031 1010.4916)" class="st1" width="0.9" height="20.9"/>
			<rect x="841.9" y="478" transform="matrix(0.5027 -0.8645 0.8645 0.5027 -4.1249 972.7524)" class="st1" width="3" height="24"/>

				<rect x="827.3" y="505.7" transform="matrix(0.9828 -0.1849 0.1849 0.9828 -81.4403 162.1864)" class="st1" width="3" height="24"/>

				<rect x="830.8" y="574.8" transform="matrix(-0.3888 -0.9213 0.9213 -0.3888 615.2648 1581.707)" class="st1" width="3" height="24"/>

				<rect x="782.7" y="519.8" transform="matrix(0.9213 -0.3888 0.3888 0.9213 -143.3813 346.651)" class="st0" width="4.5" height="15.6"/>

				<rect x="842.5" y="465.3" transform="matrix(0.6619 0.7496 -0.7496 0.6619 639.8605 -472.3759)" class="st0" width="2.1" height="15.6"/>

				<rect x="748.4" y="456.8" transform="matrix(0.6619 0.7496 -0.7496 0.6619 601.6881 -404.6439)" class="st0" width="2.1" height="15.6"/>

				<rect x="905.5" y="562.7" transform="matrix(0.6619 0.7496 -0.7496 0.6619 734.1774 -486.6394)" class="st0" width="2.1" height="15.6"/>

				<rect x="656.5" y="595.9" transform="matrix(0.9213 -0.3888 0.3888 0.9213 -182.8792 303.5624)" class="st0" width="4.5" height="15.6"/>
		</g>
	</g>
</g>
</svg>
