<?xml version="1.0" encoding="utf-8"?>
<!-- Generator: Adobe Illustrator 21.1.0, SVG Export Plug-In . SVG Version: 6.00 Build 0)  -->
<svg version="1.1" xmlns="http://www.w3.org/2000/svg" xmlns:xlink="http://www.w3.org/1999/xlink" x="0px" y="0px"
	 viewBox="0 0 1728 1296" style="enable-background:new 0 0 1728 1296;" xml:space="preserve">
<style type="text/css">
	.st0{fill:#F4D862;stroke:#F4D862;stroke-linecap:round;stroke-miterlimit:10;}
	.st1{fill:#E5C84E;stroke:#E5C84E;stroke-linecap:round;stroke-miterlimit:10;}
	.st2{fill:#CC8C37;stroke:#C69C6D;stroke-miterlimit:10;}
	.st3{fill:#C1272D;stroke:#FF0000;stroke-linecap:round;stroke-miterlimit:10;}
	.st4{fill:#E2CF61;stroke:#C69C6D;stroke-width:2;stroke-linecap:round;stroke-miterlimit:10;}
	.st5{fill:#E6E7E8;stroke:#231F20;stroke-linecap:round;stroke-miterlimit:10;}
	.st6{fill:#DBA24A;stroke:#C69C6D;stroke-miterlimit:10;}
	.st7{fill:#D18933;stroke:#C69C6D;stroke-miterlimit:10;}
	.st8{fill:#16960F;}
	.st9{fill:none;stroke:#000000;stroke-miterlimit:10;}
</style>
<g id="Layer_2">
	<g id="_x3C_Group_class_x3D__x22_slice_x22__x3E__2_">
		
			<rect x="653.2" y="411.1" transform="matrix(0.9934 0.1143 -0.1143 0.9934 51.8771 -72.1059)" class="st0" width="3.3" height="10.7"/>
		
			<rect x="597.3" y="460.4" transform="matrix(-0.3483 -0.9374 0.9374 -0.3483 366.6153 1199.6265)" class="st1" width="6" height="24"/>
		
			<rect x="651" y="403.9" transform="matrix(-0.9786 0.2058 -0.2058 -0.9786 1379.6766 688.3392)" class="st1" width="6" height="24"/>
		
			<rect x="651" y="403.9" transform="matrix(-0.3483 -0.9374 0.9374 -0.3483 491.9098 1173.8783)" class="st1" width="6" height="24"/>
		
			<rect x="651" y="403.9" transform="matrix(-0.3483 -0.9374 0.9374 -0.3483 491.9098 1173.8783)" class="st1" width="6" height="24"/>
		
			<rect x="651" y="403.9" transform="matrix(-0.3483 -0.9374 0.9374 -0.3483 491.9098 1173.8783)" class="st1" width="6" height="24"/>
		
			<rect x="566.1" y="294.3" transform="matrix(0.9374 -0.3483 0.3483 0.9374 -124.7891 226.949)" class="st2" width="5.6" height="332.5"/>
		
			<ellipse transform="matrix(0.1143 -0.9934 0.9934 0.1143 267.9514 1064.3567)" class="st3" cx="730.9" cy="381.9" rx="31.1" ry="27"/>
		<polygon class="st4" points="629.8,614.8 519.9,319 804,351.7 		"/>
		<path class="st5" d="M482.9,414.7"/>
		<path class="st6" d="M522,323.5c-2.9-1.5-17.5-9.4-17.3-19.3c0.2-8.8,12.5-13.7,17.5-16.7c34-20.3,85.9,5.8,190.2,7.5
			c48.8,0.8,99.8-1.3,108.9,19.7c1.2,2.9,3.2,8.4,2.2,14.6c-2.1,12.8-14.3,20.2-18.2,22.4"/>
		<polygon class="st7" points="799.7,354 519.6,321.8 531.6,313.3 811.8,345.5 		"/>
		
			<ellipse transform="matrix(0.1143 -0.9934 0.9934 0.1143 131.8564 996.1993)" class="st3" cx="624.6" cy="424.2" rx="23" ry="23"/>
		
			<ellipse transform="matrix(0.1143 -0.9934 0.9934 0.1143 256.6911 1045.7213)" class="st3" cx="714.8" cy="378.9" rx="27" ry="27"/>
		
			<ellipse transform="matrix(0.1143 -0.9934 0.9934 0.1143 154.2788 1100.5107)" class="st3" cx="694.3" cy="463.7" rx="24.5" ry="24.5"/>
		
			<ellipse transform="matrix(0.1143 -0.9934 0.9934 0.1143 154.9428 903.8995)" class="st3" cx="584.4" cy="365.1" rx="24.5" ry="24.5"/>
		<g>
			<g>
				<path class="st8" d="M658.1,429.1c5.1,2.4,10.1,4.7,15.2,7.1c4.7,2.2,8.5,4.3,13.8,3.3c10.1-1.9,20-5.8,29.4-9.9
					c3.2-1.4,3.4-5.6,2.2-8.2c-0.8-1.7-1.5-3.3-2.3-5c-1.3-2.8-5.7-3.9-8.2-2.2c-2.5,1.8-6,1.5-9,2c-3.2,0.5-6.4,1.3-9.5,2.1
					c-6.4,1.6-13.1,3.6-19.7,2.6c-7.6-1.1-10.8,10.4-3.2,11.6c8.4,1.2,16.2-0.2,24.3-2.2c4-1,8.1-2.1,12.2-2.6
					c3.9-0.5,7.6-0.7,10.9-3.1c-2.7-0.7-5.5-1.4-8.2-2.2c0.8,1.7,1.5,3.3,2.3,5c0.7-2.7,1.4-5.5,2.2-8.2c-7.5,3.3-15.3,5.9-23.2,7.9
					c-4.2,1.1-6.7-0.8-10.6-2.6c-4.2-1.9-8.3-3.9-12.5-5.8C657.2,415.5,651.1,425.8,658.1,429.1L658.1,429.1z"/>
			</g>
		</g>
		<g>
			<g>
				<path class="st8" d="M628.9,450.6c-0.5,5.6-1,11.1-1.4,16.7c-0.4,5-0.8,8.8,1.8,13.3c5.1,8.6,12,16.5,18.8,23.7
					c2.2,2.4,6.2,2.2,8.5,0c1.3-1.3,2.6-2.6,3.9-3.9c2.9-2.9,1.9-7.2-1.2-9.4c-2.1-1.5-3.3-5.8-4.5-7.9c-1.8-3-3.8-5.9-5.7-8.9
					c-3.7-5.5-7.2-10.9-8.5-17.4c-1.5-7.6-13.1-4.4-11.6,3.2c1.6,8.1,6.1,14.9,10.6,21.7c4.3,6.4,7.3,15.2,13.6,19.7
					c-0.4-3.1-0.8-6.3-1.2-9.4c-1.3,1.3-2.6,2.6-3.9,3.9c2.8,0,5.7,0,8.5,0c-5.9-6.2-11.2-12.7-16-19.8c-1.1-1.6-1.4-2.1-1.6-3.8
					c-0.3-2.4,0.5-5.4,0.7-7.9c0.4-4.6,0.8-9.2,1.2-13.7C641.6,442.9,629.6,443,628.9,450.6L628.9,450.6z"/>
			</g>
		</g>
		<g>
			<g>
				<path class="st8" d="M592.2,399.7c5.4-1.3,10.8-2.7,16.3-4c4.7-1.2,8.7-1.9,12-5.8c6.5-7.6,11.8-16.5,16.5-25.4
					c1.4-2.7,0.9-6.7-2.2-8.2c-1.6-0.8-3.3-1.6-4.9-2.4c-3.5-1.7-7.7-0.3-8.8,3.6c-0.8,2.8-4.6,5.4-6.5,7.7c-2.1,2.5-4,5.1-6,7.7
					c-3.9,5.1-7.9,10.3-13.5,13.5c-6.7,3.9-0.7,14.2,6.1,10.4c7.1-4.1,12.1-10.3,16.9-16.6c2.4-3.1,4.8-6.3,7.5-9.2
					c3-3.2,5.9-5.9,7.2-10.2c-2.9,1.2-5.9,2.4-8.8,3.6c1.6,0.8,3.3,1.6,4.9,2.4c-0.7-2.7-1.4-5.5-2.2-8.2
					c-3.9,7.4-8.3,14.6-13.4,21.4c-1.1,1.4-1.7,2.3-3.2,3.1c-2.1,1.1-5.4,1.3-7.7,1.9c-4.5,1.1-8.9,2.2-13.4,3.3
					C581.5,390,584.7,401.6,592.2,399.7L592.2,399.7z"/>
			</g>
		</g>
		
			<ellipse transform="matrix(0.1143 -0.9934 0.9934 0.1143 43.7769 1085.7061)" class="st3" cx="630.8" cy="518.3" rx="28.7" ry="27"/>
		
			<rect x="604.9" y="478.5" transform="matrix(-0.9245 -0.3812 0.3812 -0.9245 980.8334 1175.2319)" class="st1" width="3.8" height="24"/>
		
			<rect x="617.8" y="335.9" transform="matrix(-0.4336 -0.9011 0.9011 -0.4336 574.2034 1053.6357)" class="st1" width="0.9" height="20.9"/>
		
			<rect x="663.1" y="360.8" transform="matrix(-0.3483 -0.9374 0.9374 -0.3483 546.626 1125.5951)" class="st1" width="3" height="24"/>
		
			<rect x="675.3" y="389.7" transform="matrix(0.4815 -0.8764 0.8764 0.4815 -1.1394 801.4319)" class="st1" width="3" height="24"/>
		
			<rect x="730.8" y="430.8" transform="matrix(-0.9585 -0.2851 0.2851 -0.9585 1307.9855 1076.0726)" class="st1" width="3" height="24"/>
		
			<rect x="654.3" y="434.1" transform="matrix(0.2851 -0.9585 0.9585 0.2851 45.8612 945.2297)" class="st0" width="4.5" height="15.6"/>
		
			<rect x="650.7" y="354.1" transform="matrix(0.9994 -3.498235e-02 3.498235e-02 0.9994 -12.2631 23.0192)" class="st0" width="2.1" height="15.6"/>
		
			<rect x="584.3" y="421.5" transform="matrix(0.9994 -3.498235e-02 3.498235e-02 0.9994 -14.6601 20.7394)" class="st0" width="2.1" height="15.6"/>
		
			<rect x="765.9" y="367.4" transform="matrix(0.9994 -3.498235e-02 3.498235e-02 0.9994 -12.6563 27.0586)" class="st0" width="2.1" height="15.6"/>
		
			<rect x="634.5" y="565.2" transform="matrix(0.2851 -0.9585 0.9585 0.2851 -94.0014 1020.0677)" class="st0" width="4.5" height="15.6"/>
	</g>
</g>
<g id="Layer_1">
	<path class="st9" d="M599.2,280.4"/>
</g>
</svg>
