<?xml version="1.0" encoding="utf-8"?>
<!-- Generator: Adobe Illustrator 21.1.0, SVG Export Plug-In . SVG Version: 6.00 Build 0)  -->
<svg version="1.1" id="Layer_1" xmlns="http://www.w3.org/2000/svg" xmlns:xlink="http://www.w3.org/1999/xlink" x="0px" y="0px"
	 viewBox="0 0 1296 1728" style="enable-background:new 0 0 1296 1728;" xml:space="preserve">
<style type="text/css">
	.st0{fill:#DBA24A;stroke:#231F20;stroke-linecap:round;stroke-miterlimit:10;}
	.st1{fill:#FFD867;stroke:#231F20;stroke-linecap:round;stroke-miterlimit:10;}
	.st2{fill:none;stroke:#231F20;stroke-linecap:round;stroke-miterlimit:10;}
	.st3{fill:#CE0000;stroke:#231F20;stroke-linecap:round;stroke-miterlimit:10;}
</style>
<ellipse class="st0" cx="675.1" cy="780.5" rx="435.3" ry="429.6"/>
<circle class="st1" cx="675.1" cy="780.5" r="402"/>
<line class="st2" x1="675.1" y1="780.5" x2="675.1" y2="378.5"/>
<line class="st2" x1="675.1" y1="1182.6" x2="675.1" y2="780.5"/>
<line class="st2" x1="273.1" y1="780.5" x2="675.1" y2="780.5"/>
<line class="st2" x1="675.1" y1="780.5" x2="1077.2" y2="780.5"/>
<line class="st2" x1="675.1" y1="780.5" x2="390.9" y2="496.3"/>
<line class="st2" x1="959.4" y1="1064.8" x2="675.1" y2="780.5"/>
<line class="st2" x1="675.1" y1="780.5" x2="959.4" y2="496.3"/>
<line class="st2" x1="390.9" y1="1064.8" x2="675.1" y2="780.5"/>
<circle class="st3" cx="384.5" cy="616.8" r="21.6"/>
<circle class="st3" cx="511.4" cy="495.7" r="21.6"/>
<circle class="st3" cx="373.6" cy="725.8" r="21.6"/>
<circle class="st3" cx="570" cy="616.8" r="21.6"/>
<circle class="st3" cx="489.8" cy="681.6" r="21.6"/>
<circle class="st3" cx="634.8" cy="681.6" r="21.6"/>
<circle class="st3" cx="591.6" cy="538.9" r="21.6"/>
<circle class="st3" cx="934" cy="638.4" r="21.6"/>
<circle class="st3" cx="626.4" cy="427.3" r="21.6"/>
<circle class="st3" cx="341.3" cy="813.4" r="21.6"/>
<circle class="st3" cx="489.8" cy="823.7" r="21.6"/>
<circle class="st3" cx="449.9" cy="922.7" r="21.6"/>
<circle class="st3" cx="570" cy="835" r="21.6"/>
<circle class="st3" cx="362.9" cy="944.3" r="21.6"/>
<circle class="st3" cx="449.9" cy="1077.4" r="21.6"/>
<circle class="st3" cx="548.4" cy="1034.2" r="21.6"/>
<circle class="st3" cx="648" cy="893.7" r="21.6"/>
<circle class="st3" cx="613.2" cy="1126.8" r="21.6"/>
<circle class="st3" cx="817.3" cy="557.9" r="21.6"/>
<circle class="st3" cx="733" cy="616.8" r="21.6"/>
<circle class="st3" cx="754.6" cy="477.4" r="21.6"/>
<circle class="st3" cx="795.7" cy="747.7" r="21.6"/>
<circle class="st3" cx="977.2" cy="579.5" r="21.6"/>
<circle class="st3" cx="876.2" cy="709.9" r="21.6"/>
<circle class="st3" cx="1027.6" cy="747.4" r="21.6"/>
<circle class="st3" cx="591.6" cy="958.5" r="21.6"/>
<circle class="st3" cx="736.7" cy="915.3" r="21.6"/>
<circle class="st3" cx="968.2" cy="981.6" r="21.6"/>
<circle class="st3" cx="1027.6" cy="856.6" r="21.6"/>
<circle class="st3" cx="876.2" cy="845.3" r="21.6"/>
<circle class="st3" cx="876.2" cy="922.7" r="21.6"/>
<circle class="st3" cx="838.9" cy="1034.2" r="21.6"/>
<circle class="st3" cx="754.6" cy="1097.7" r="21.6"/>
<circle class="st3" cx="765.8" cy="813.4" r="21.6"/>
<circle class="st3" cx="526.4" cy="747.7" r="21.6"/>
<circle class="st3" cx="758.3" cy="1017.3" r="21.6"/>
</svg>
