<?xml version="1.0" encoding="utf-8"?>
<!-- Generator: Adobe Illustrator 21.1.0, SVG Export Plug-In . SVG Version: 6.00 Build 0)  -->
<svg version="1.1" xmlns="http://www.w3.org/2000/svg" xmlns:xlink="http://www.w3.org/1999/xlink" x="0px" y="0px"
	 viewBox="0 0 1728 1296" style="enable-background:new 0 0 1728 1296;" xml:space="preserve">
<style type="text/css">
	.st0{display:none;}
	.st1{display:inline;}
	.st2{fill:#F4D862;stroke:#F4D862;stroke-linecap:round;stroke-miterlimit:10;}
	.st3{fill:#E5C84E;stroke:#E5C84E;stroke-linecap:round;stroke-miterlimit:10;}
	.st4{fill:#CC8C37;stroke:#C69C6D;stroke-miterlimit:10;}
	.st5{fill:#C1272D;stroke:#FF0000;stroke-linecap:round;stroke-miterlimit:10;}
	.st6{fill:#E2CF61;stroke:#C69C6D;stroke-width:2;stroke-linecap:round;stroke-miterlimit:10;}
	.st7{fill:#E6E7E8;stroke:#231F20;stroke-linecap:round;stroke-miterlimit:10;}
	.st8{fill:#DBA24A;stroke:#C69C6D;stroke-miterlimit:10;}
	.st9{fill:#D18933;stroke:#C69C6D;stroke-miterlimit:10;}
	.st10{fill:#16960F;}
	.st11{fill:none;stroke:#000000;stroke-miterlimit:10;}
</style>
<g id="Layer_2" class="st0">
	<g id="_x3C_Group_class_x3D__x22_slice_x22__x3E__2_" class="st1">

			<rect x="714.9" y="455.5" transform="matrix(0.9934 0.1143 -0.1143 0.9934 57.3645 -78.8701)" class="st2" width="3.3" height="10.7"/>

			<rect x="659.1" y="504.8" transform="matrix(-0.3483 -0.9374 0.9374 -0.3483 408.163 1317.4667)" class="st3" width="6" height="24"/>

			<rect x="712.8" y="448.4" transform="matrix(-0.9786 0.2058 -0.2058 -0.9786 1510.9877 763.6322)" class="st3" width="6" height="24"/>

			<rect x="712.8" y="448.4" transform="matrix(-0.3483 -0.9374 0.9374 -0.3483 533.4575 1291.7185)" class="st3" width="6" height="24"/>

			<rect x="712.8" y="448.4" transform="matrix(-0.3483 -0.9374 0.9374 -0.3483 533.4575 1291.7185)" class="st3" width="6" height="24"/>

			<rect x="712.8" y="448.4" transform="matrix(-0.3483 -0.9374 0.9374 -0.3483 533.4575 1291.7185)" class="st3" width="6" height="24"/>

			<rect x="627.8" y="338.8" transform="matrix(0.9374 -0.3483 0.3483 0.9374 -136.4135 251.2345)" class="st4" width="5.6" height="332.5"/>

			<ellipse transform="matrix(0.1143 -0.9934 0.9934 0.1143 278.4494 1165.0851)" class="st5" cx="792.6" cy="426.4" rx="31.1" ry="27"/>
		<polygon class="st6" points="691.5,659.3 581.6,363.4 865.8,396.1 		"/>
		<path class="st7" d="M544.6,459.2"/>
		<path class="st8" d="M583.7,368c-2.9-1.5-17.5-9.4-17.3-19.3c0.2-8.8,12.5-13.7,17.5-16.7c34-20.3,85.9,5.8,190.2,7.5
			c48.8,0.8,99.8-1.3,108.9,19.7c1.2,2.9,3.2,8.4,2.2,14.6c-2.1,12.8-14.3,20.2-18.2,22.4"/>
		<polygon class="st9" points="861.5,398.5 581.3,366.2 593.3,357.8 873.5,390 		"/>

			<ellipse transform="matrix(0.1143 -0.9934 0.9934 0.1143 142.3545 1096.9277)" class="st5" cx="686.4" cy="468.6" rx="23" ry="23"/>

			<ellipse transform="matrix(0.1143 -0.9934 0.9934 0.1143 267.1891 1146.4497)" class="st5" cx="776.5" cy="423.4" rx="27" ry="27"/>

			<ellipse transform="matrix(0.1143 -0.9934 0.9934 0.1143 164.7768 1201.2391)" class="st5" cx="756.1" cy="508.2" rx="24.5" ry="24.5"/>

			<ellipse transform="matrix(0.1143 -0.9934 0.9934 0.1143 165.4409 1004.628)" class="st5" cx="646.1" cy="409.5" rx="24.5" ry="24.5"/>
		<g>
			<g>
				<path class="st10" d="M719.8,473.6c5.1,2.4,10.1,4.7,15.2,7.1c4.7,2.2,8.5,4.3,13.8,3.3c10.1-1.9,20-5.8,29.4-9.9
					c3.2-1.4,3.4-5.6,2.2-8.2c-0.8-1.7-1.5-3.3-2.3-5c-1.3-2.8-5.7-3.9-8.2-2.2c-2.5,1.8-6,1.5-9,2c-3.2,0.5-6.4,1.3-9.5,2.1
					c-6.4,1.6-13.1,3.6-19.7,2.6c-7.6-1.1-10.8,10.4-3.2,11.6c8.4,1.2,16.2-0.2,24.3-2.2c4-1,8.1-2.1,12.2-2.6
					c3.9-0.5,7.6-0.7,10.9-3.1c-2.7-0.7-5.5-1.4-8.2-2.2c0.8,1.7,1.5,3.3,2.3,5c0.7-2.7,1.4-5.5,2.2-8.2c-7.5,3.3-15.3,5.9-23.2,7.9
					c-4.2,1.1-6.7-0.8-10.6-2.6c-4.2-1.9-8.3-3.9-12.5-5.8C718.9,460,712.8,470.3,719.8,473.6L719.8,473.6z"/>
			</g>
		</g>
		<g>
			<g>
				<path class="st10" d="M690.7,495.1c-0.5,5.6-1,11.1-1.4,16.7c-0.4,5-0.8,8.8,1.8,13.3c5.1,8.6,12,16.5,18.8,23.7
					c2.2,2.4,6.2,2.2,8.5,0c1.3-1.3,2.6-2.6,3.9-3.9c2.9-2.9,1.9-7.2-1.2-9.4c-2.1-1.5-3.3-5.8-4.5-7.9c-1.8-3-3.8-5.9-5.7-8.9
					c-3.7-5.5-7.2-10.9-8.5-17.4c-1.5-7.6-13.1-4.4-11.6,3.2c1.6,8.1,6.1,14.9,10.6,21.7c4.3,6.4,7.3,15.2,13.6,19.7
					c-0.4-3.1-0.8-6.3-1.2-9.4c-1.3,1.3-2.6,2.6-3.9,3.9c2.8,0,5.7,0,8.5,0c-5.9-6.2-11.2-12.7-16-19.8c-1.1-1.6-1.4-2.1-1.6-3.8
					c-0.3-2.4,0.5-5.4,0.7-7.9c0.4-4.6,0.8-9.2,1.2-13.7C703.4,487.4,691.3,487.5,690.7,495.1L690.7,495.1z"/>
			</g>
		</g>
		<g>
			<g>
				<path class="st10" d="M654,444.2c5.4-1.3,10.8-2.7,16.3-4c4.7-1.2,8.7-1.9,12-5.8c6.5-7.6,11.8-16.5,16.5-25.4
					c1.4-2.7,0.9-6.7-2.2-8.2c-1.6-0.8-3.3-1.6-4.9-2.4c-3.5-1.7-7.7-0.3-8.8,3.6c-0.8,2.8-4.6,5.4-6.5,7.7c-2.1,2.5-4,5.1-6,7.7
					c-3.9,5.1-7.9,10.3-13.5,13.5c-6.7,3.9-0.7,14.2,6.1,10.4c7.1-4.1,12.1-10.3,16.9-16.6c2.4-3.1,4.8-6.3,7.5-9.2
					c3-3.2,5.9-5.9,7.2-10.2c-2.9,1.2-5.9,2.4-8.8,3.6c1.6,0.8,3.3,1.6,4.9,2.4c-0.7-2.7-1.4-5.5-2.2-8.2
					c-3.9,7.4-8.3,14.6-13.4,21.4c-1.1,1.4-1.7,2.3-3.2,3.1c-2.1,1.1-5.4,1.3-7.7,1.9c-4.5,1.1-8.9,2.2-13.4,3.3
					C643.3,434.5,646.5,446.1,654,444.2L654,444.2z"/>
			</g>
		</g>

			<ellipse transform="matrix(0.1143 -0.9934 0.9934 0.1143 54.2749 1186.4344)" class="st5" cx="692.5" cy="562.8" rx="28.7" ry="27"/>

			<rect x="666.6" y="523" transform="matrix(-0.9245 -0.3812 0.3812 -0.9245 1082.6978 1284.3606)" class="st3" width="3.8" height="24"/>

			<rect x="679.5" y="380.4" transform="matrix(-0.4336 -0.9011 0.9011 -0.4336 622.6329 1173.0308)" class="st3" width="0.9" height="20.9"/>

			<rect x="724.8" y="405.2" transform="matrix(-0.3483 -0.9374 0.9374 -0.3483 588.1738 1243.4354)" class="st3" width="3" height="24"/>
		<rect x="737" y="434.2" transform="matrix(0.4815 -0.8764 0.8764 0.4815 -8.1095 878.6035)" class="st3" width="3" height="24"/>

			<rect x="792.5" y="475.3" transform="matrix(-0.9585 -0.2851 0.2851 -0.9585 1416.2229 1180.7806)" class="st3" width="3" height="24"/>

			<rect x="716" y="478.5" transform="matrix(0.2851 -0.9585 0.9585 0.2851 47.3691 1036.2048)" class="st2" width="4.5" height="15.6"/>

			<rect x="712.4" y="398.6" transform="matrix(0.9994 -3.498235e-02 3.498235e-02 0.9994 -13.7812 25.2062)" class="st2" width="2.1" height="15.6"/>

			<rect x="646.1" y="466" transform="matrix(0.9994 -3.498235e-02 3.498235e-02 0.9994 -16.1782 22.9264)" class="st2" width="2.1" height="15.6"/>

			<rect x="827.6" y="411.9" transform="matrix(0.9994 -3.498235e-02 3.498235e-02 0.9994 -14.1744 29.2456)" class="st2" width="2.1" height="15.6"/>

			<rect x="696.3" y="609.7" transform="matrix(0.2851 -0.9585 0.9585 0.2851 -92.4935 1111.043)" class="st2" width="4.5" height="15.6"/>
	</g>
</g>
<g id="Layer_1">
	<g id="_x3C_Group_class_x3D__x22_slice_x22__x3E__1_">

			<rect x="658.6" y="405.1" transform="matrix(0.9934 0.1143 -0.1143 0.9934 51.2275 -72.7633)" class="st2" width="3.3" height="10.7"/>

			<rect x="602.7" y="454.4" transform="matrix(-0.3483 -0.9374 0.9374 -0.3483 379.5268 1196.6145)" class="st3" width="6" height="24"/>

			<rect x="656.4" y="397.9" transform="matrix(-0.9786 0.2058 -0.2058 -0.9786 1389.1444 675.3654)" class="st3" width="6" height="24"/>

			<rect x="656.4" y="397.9" transform="matrix(-0.3483 -0.9374 0.9374 -0.3483 504.8213 1170.8663)" class="st3" width="6" height="24"/>

			<rect x="656.4" y="397.9" transform="matrix(-0.3483 -0.9374 0.9374 -0.3483 504.8213 1170.8663)" class="st3" width="6" height="24"/>

			<rect x="656.4" y="397.9" transform="matrix(-0.3483 -0.9374 0.9374 -0.3483 504.8213 1170.8663)" class="st3" width="6" height="24"/>

			<rect x="571.5" y="288.3" transform="matrix(0.9374 -0.3483 0.3483 0.9374 -122.3629 228.4574)" class="st4" width="5.6" height="332.5"/>

			<ellipse transform="matrix(0.1143 -0.9934 0.9934 0.1143 278.6972 1064.4205)" class="st5" cx="736.3" cy="375.9" rx="31.1" ry="27"/>
		<polygon class="st6" points="635.2,608.8 525.3,313 809.4,345.7 		"/>
		<path class="st7" d="M488.3,408.7"/>
		<path class="st8" d="M527.4,317.5c-2.9-1.5-17.5-9.4-17.3-19.3c0.2-8.8,12.5-13.7,17.5-16.7c34-20.3,85.9,5.8,190.2,7.5
			c48.8,0.8,99.8-1.3,108.9,19.7c1.2,2.9,3.2,8.4,2.2,14.6c-2.1,12.8-14.3,20.2-18.2,22.4"/>
		<polygon class="st9" points="805.1,348 525,315.8 537,307.3 817.2,339.5 		"/>
		<ellipse transform="matrix(0.1143 -0.9934 0.9934 0.1143 142.6022 996.2633)" class="st5" cx="630" cy="418.2" rx="23" ry="23"/>

			<ellipse transform="matrix(0.1143 -0.9934 0.9934 0.1143 267.4369 1045.7852)" class="st5" cx="720.2" cy="372.9" rx="27" ry="27"/>

			<ellipse transform="matrix(0.1143 -0.9934 0.9934 0.1143 165.0245 1100.5746)" class="st5" cx="699.7" cy="457.7" rx="24.5" ry="24.5"/>

			<ellipse transform="matrix(0.1143 -0.9934 0.9934 0.1143 165.6886 903.9635)" class="st5" cx="589.8" cy="359.1" rx="24.5" ry="24.5"/>
		<g>
			<g>
				<path class="st10" d="M663.5,423.1c5.1,2.4,10.1,4.7,15.2,7.1c4.7,2.2,8.5,4.3,13.8,3.3c10.1-1.9,20-5.8,29.4-9.9
					c3.2-1.4,3.4-5.6,2.2-8.2c-0.8-1.7-1.5-3.3-2.3-5c-1.3-2.8-5.7-3.9-8.2-2.2c-2.5,1.8-6,1.5-9,2c-3.2,0.5-6.4,1.3-9.5,2.1
					c-6.4,1.6-13.1,3.6-19.7,2.6c-7.6-1.1-10.8,10.4-3.2,11.6c8.4,1.2,16.2-0.2,24.3-2.2c4-1,8.1-2.1,12.2-2.6
					c3.9-0.5,7.6-0.7,10.9-3.1c-2.7-0.7-5.5-1.4-8.2-2.2c0.8,1.7,1.5,3.3,2.3,5c0.7-2.7,1.4-5.5,2.2-8.2c-7.5,3.3-15.3,5.9-23.2,7.9
					c-4.2,1.1-6.7-0.8-10.6-2.6c-4.2-1.9-8.3-3.9-12.5-5.8C662.6,409.5,656.5,419.8,663.5,423.1L663.5,423.1z"/>
			</g>
		</g>
		<g>
			<g>
				<path class="st10" d="M634.4,444.6c-0.5,5.6-1,11.1-1.4,16.7c-0.4,5-0.8,8.8,1.8,13.3c5.1,8.6,12,16.5,18.8,23.7
					c2.2,2.4,6.2,2.2,8.5,0c1.3-1.3,2.6-2.6,3.9-3.9c2.9-2.9,1.9-7.2-1.2-9.4c-2.1-1.5-3.3-5.8-4.5-7.9c-1.8-3-3.8-5.9-5.7-8.9
					c-3.7-5.5-7.2-10.9-8.5-17.4c-1.5-7.6-13.1-4.4-11.6,3.2c1.6,8.1,6.1,14.9,10.6,21.7c4.3,6.4,7.3,15.2,13.6,19.7
					c-0.4-3.1-0.8-6.3-1.2-9.4c-1.3,1.3-2.6,2.6-3.9,3.9c2.8,0,5.7,0,8.5,0c-5.9-6.2-11.2-12.7-16-19.8c-1.1-1.6-1.4-2.1-1.6-3.8
					c-0.3-2.4,0.5-5.4,0.7-7.9c0.4-4.6,0.8-9.2,1.2-13.7C647,436.9,635,437,634.4,444.6L634.4,444.6z"/>
			</g>
		</g>
		<g>
			<g>
				<path class="st10" d="M597.6,393.7c5.4-1.3,10.8-2.7,16.3-4c4.7-1.2,8.7-1.9,12-5.8c6.5-7.6,11.8-16.5,16.5-25.4
					c1.4-2.7,0.9-6.7-2.2-8.2c-1.6-0.8-3.3-1.6-4.9-2.4c-3.5-1.7-7.7-0.3-8.8,3.6c-0.8,2.8-4.6,5.4-6.5,7.7c-2.1,2.5-4,5.1-6,7.7
					c-3.9,5.1-7.9,10.3-13.5,13.5c-6.7,3.9-0.7,14.2,6.1,10.4c7.1-4.1,12.1-10.3,16.9-16.6c2.4-3.1,4.8-6.3,7.5-9.2
					c3-3.2,5.9-5.9,7.2-10.2c-2.9,1.2-5.9,2.4-8.8,3.6c1.6,0.8,3.3,1.6,4.9,2.4c-0.7-2.7-1.4-5.5-2.2-8.2
					c-3.9,7.4-8.3,14.6-13.4,21.4c-1.1,1.4-1.7,2.3-3.2,3.1c-2.1,1.1-5.4,1.3-7.7,1.9c-4.5,1.1-8.9,2.2-13.4,3.3
					C586.9,384,590.1,395.6,597.6,393.7L597.6,393.7z"/>
			</g>
		</g>

			<ellipse transform="matrix(0.1143 -0.9934 0.9934 0.1143 54.5227 1085.77)" class="st5" cx="636.2" cy="512.3" rx="28.7" ry="27"/>

			<rect x="610.3" y="472.5" transform="matrix(-0.9245 -0.3812 0.3812 -0.9245 993.5275 1165.7573)" class="st3" width="3.8" height="24"/>

			<rect x="623.2" y="329.9" transform="matrix(-0.4336 -0.9011 0.9011 -0.4336 587.3589 1049.9161)" class="st3" width="0.9" height="20.9"/>

			<rect x="668.5" y="354.8" transform="matrix(-0.3483 -0.9374 0.9374 -0.3483 559.5375 1122.5833)" class="st3" width="3" height="24"/>
		<rect x="680.7" y="383.7" transform="matrix(0.4815 -0.8764 0.8764 0.4815 6.9187 803.0643)" class="st3" width="3" height="24"/>

			<rect x="736.2" y="424.9" transform="matrix(-0.9585 -0.2851 0.2851 -0.9585 1320.2874 1065.8744)" class="st3" width="3" height="24"/>

			<rect x="659.7" y="428.1" transform="matrix(0.2851 -0.9585 0.9585 0.2851 55.4737 946.1284)" class="st2" width="4.5" height="15.6"/>

			<rect x="656.1" y="348.1" transform="matrix(0.9994 -3.498235e-02 3.498235e-02 0.9994 -12.0501 23.2047)" class="st2" width="2.1" height="15.6"/>

			<rect x="589.7" y="415.5" transform="matrix(0.9994 -3.498235e-02 3.498235e-02 0.9994 -14.4471 20.9249)" class="st2" width="2.1" height="15.6"/>

			<rect x="771.3" y="361.4" transform="matrix(0.9994 -3.498235e-02 3.498235e-02 0.9994 -12.4433 27.2442)" class="st2" width="2.1" height="15.6"/>

			<rect x="639.9" y="559.2" transform="matrix(0.2851 -0.9585 0.9585 0.2851 -84.3888 1020.9665)" class="st2" width="4.5" height="15.6"/>
	</g>
	<path class="st11" d="M599.2,280.4"/>
</g>
</svg>
